bicep_curl
version=1
nRows=101
nColumns=3
inDegrees=yes

# SIMM Motion File Header:
name bicep_curl
datacolumns 3
datarows 101
otherdata 1
range 0.0000 1.0000
endheader
time	/jointset/r_shoulder/r_shoulder_elev/value	/jointset/r_elbow/r_elbow_flex/value
0.0000	0.0000	0.0000
0.0100	0.0000	0.0000
0.0200	0.0000	0.0000
0.0300	0.0000	0.0000
0.0400	0.0000	0.0000
0.0500	0.0000	0.0000
0.0600	0.0000	0.0000
0.0700	0.0000	0.0000
0.0800	0.0000	0.0000
0.0900	0.0000	0.0000
0.1000	0.0000	0.0000
0.1100	0.0000	2.0000
0.1200	0.0000	4.0000
0.1300	0.0000	6.0000
0.1400	0.0000	8.0000
0.1500	0.0000	10.0000
0.1600	0.0000	12.0000
0.1700	0.0000	14.0000
0.1800	0.0000	16.0000
0.1900	0.0000	18.0000
0.2000	0.0000	20.0000
0.2100	0.0000	22.0000
0.2200	0.0000	24.0000
0.2300	0.0000	26.0000
0.2400	0.0000	28.0000
0.2500	0.0000	30.0000
0.2600	0.0000	32.0000
0.2700	0.0000	34.0000
0.2800	0.0000	36.0000
0.2900	0.0000	38.0000
0.3000	0.0000	40.0000
0.3100	0.0000	42.0000
0.3200	0.0000	44.0000
0.3300	0.0000	46.0000
0.3400	0.0000	48.0000
0.3500	0.0000	50.0000
0.3600	0.0000	52.0000
0.3700	0.0000	54.0000
0.3800	0.0000	56.0000
0.3900	0.0000	58.0000
0.4000	0.0000	60.0000
0.4100	0.0000	62.0000
0.4200	0.0000	64.0000
0.4300	0.0000	66.0000
0.4400	0.0000	68.0000
0.4500	0.0000	70.0000
0.4600	0.0000	70.0000
0.4700	0.0000	70.0000
0.4800	0.0000	70.0000
0.4900	0.0000	70.0000
0.5000	0.0000	70.0000
0.5100	0.0000	70.0000
0.5200	0.0000	70.0000
0.5300	0.0000	70.0000
0.5400	0.0000	70.0000
0.5500	0.0000	70.0000
0.5600	0.0000	72.0000
0.5700	0.0000	74.0000
0.5800	0.0000	76.0000
0.5900	0.0000	78.0000
0.6000	0.0000	80.0000
0.6100	0.0000	82.0000
0.6200	0.0000	84.0000
0.6300	0.0000	86.0000
0.6400	0.0000	88.0000
0.6500	0.0000	90.0000
0.6600	0.0000	92.0000
0.6700	0.0000	94.0000
0.6800	0.0000	96.0000
0.6900	0.0000	98.0000
0.7000	0.0000	100.0000
0.7100	0.0000	102.0000
0.7200	0.0000	104.0000
0.7300	0.0000	106.0000
0.7400	0.0000	108.0000
0.7500	0.0000	110.0000
0.7600	0.0000	112.0000
0.7700	0.0000	114.0000
0.7800	0.0000	116.0000
0.7900	0.0000	118.0000
0.8000	0.0000	120.0000
0.8100	0.0000	122.0000
0.8200	0.0000	124.0000
0.8300	0.0000	126.0000
0.8400	0.0000	128.0000
0.8500	0.0000	130.0000
0.8600	0.0000	132.0000
0.8700	0.0000	134.0000
0.8800	0.0000	136.0000
0.8900	0.0000	138.0000
0.9000	0.0000	140.0000
0.9100	0.0000	140.0000
0.9200	0.0000	140.0000
0.9300	0.0000	140.0000
0.9400	0.0000	140.0000
0.9500	0.0000	140.0000
0.9600	0.0000	140.0000
0.9700	0.0000	140.0000
0.9800	0.0000	140.0000
0.9900	0.0000	140.0000
1.0000	0.0000	140.0000
